<svg width="178" height="170" viewBox="0 0 178 170" fill="none" xmlns="http://www.w3.org/2000/svg">
<path fill-rule="evenodd" clip-rule="evenodd" d="M44 66H134V73H44V66ZM26 79V73H44V79H26ZM19 86V79H26V86H19ZM19 150H12V86H19V150ZM26 157H19V150H26V157ZM44 163H26V157H44V163ZM134 163V170H44V163H134ZM152 157H134V163H152V157ZM159 150V157H152V150H159ZM159 86H166V150H159V86ZM152 79H159V86H152V79ZM152 79V73H134V79H152Z" fill="black"/>
<path fill-rule="evenodd" clip-rule="evenodd" d="M7 14H19V21H7V14ZM7 28V21H0V28H7ZM19 28H7V35H19V42H37V49H57V56H64V63H75V56H82V42H75V35H57V28H37V21H19V28ZM37 35H19V28H37V35ZM57 42V49H64V56H75V42H57ZM57 42V35H37V42H57Z" fill="black"/>
<path fill-rule="evenodd" clip-rule="evenodd" d="M171 0H159V7H171V0ZM171 14V7H178V14H171ZM159 14H171V21H159V28H141V35H121V42H114V49H103V42H96V28H103V21H121V14H141V7H159V14ZM141 21H159V14H141V21ZM121 28V35H114V42H103V28H121ZM121 28V21H141V28H121Z" fill="black"/>
<path fill-rule="evenodd" clip-rule="evenodd" d="M37 28H32V35H37V42H50V35H37V28Z" fill="#7F3C0F"/>
<path fill-rule="evenodd" clip-rule="evenodd" d="M57 35H50V42H57V49H64V42H57V35Z" fill="#67310D"/>
<path fill-rule="evenodd" clip-rule="evenodd" d="M19 21H7V28H19V35H32V28H19V21Z" fill="#9F4E17"/>
<path fill-rule="evenodd" clip-rule="evenodd" d="M134 21H121V28H114V35H121V28H134V21Z" fill="#67310D"/>
<path fill-rule="evenodd" clip-rule="evenodd" d="M147 14H141V21H134V28H141V21H147V14Z" fill="#7F3C0F"/>
<path fill-rule="evenodd" clip-rule="evenodd" d="M159 7H171V14H159V7ZM159 14V21H147V14H159ZM75 42H64V48V56H75V48V42ZM103 28H114V35V42H103V35V28ZM44 150H32V157H44V163H51V157V150V137H44V150ZM57 157H76V137H83V157V163H57V157ZM89 157H102V151H108V137H115V157V163H89V157ZM128 157H121V163H134V157H141V130H134V151H128V157ZM146 143H152V118H159V150H152V157H146V143Z" fill="#B70D0D"/>
<path fill-rule="evenodd" clip-rule="evenodd" d="M32 150H26V157H32V150ZM141 151H146V157H141V151ZM115 157H121V163H115V157ZM89 157H83V163H89V157ZM51 157H57V163H51V157Z" fill="#BB7D16"/>
<path fill-rule="evenodd" clip-rule="evenodd" d="M26 118H32V150H26V118ZM51 124H57V157H51V124ZM89 124H83V157H89V124ZM115 124H121V157H115V124ZM146 118H141V151H146V118Z" fill="#DB961D"/>
<path fill-rule="evenodd" clip-rule="evenodd" d="M152 111H159V118H152V111ZM152 118V143H146V118H152ZM32 118H44V124H51V137H44V150H32V118ZM76 124H57V157H76V137H83V124H76ZM102 124H89V157H102V151H108V137H115V124H108H102ZM121 124H128H134V118H141V130H134V151H128V157H121V124ZM26 143H19V150H26V143Z" fill="#E00D14"/>
<rect x="19" y="111" width="7" height="32" fill="#F35D5E"/>
<path fill-rule="evenodd" clip-rule="evenodd" d="M159 105H152V111H159V105ZM32 111H26V118H32V111ZM57 118H51V124H57V118ZM83 118H89V124H83V118ZM121 118H115V124H121V118ZM141 111H146V118H141V111Z" fill="#BB7D16"/>
<path fill-rule="evenodd" clip-rule="evenodd" d="M26 105H19V111H26V105ZM44 111H32V118H44V124H51V118H44V111ZM57 118H83V124H57V118ZM115 118H89V124H115V118ZM121 118H134V124H121V118ZM134 118H141V111H134V118ZM152 111H146V118H152V111Z" fill="#DB961D"/>
<path fill-rule="evenodd" clip-rule="evenodd" d="M26 91H19V98H26V105H44V111H134V105H152V98H159V91H152V98H134V105H44V98H26V91Z" fill="#DB961D"/>
<path fill-rule="evenodd" clip-rule="evenodd" d="M19 98H26V105H19V98ZM44 111H26V105H44V111ZM134 111V118H44V111H134ZM152 105H134V111H152V105ZM152 105V98H159V105H152Z" fill="#E2DE34"/>
<path fill-rule="evenodd" clip-rule="evenodd" d="M159 86H147V91H128V98H57V105H134V98H147H152V91H159V86Z" fill="#E1E1E1"/>
<path fill-rule="evenodd" clip-rule="evenodd" d="M44 73H128H134V79H147H152V86H147V91H128V98H57V105H44V98H26V91H19V86H26V79H44V73Z" fill="white"/>
</svg>
