<svg width="210" height="273" viewBox="0 0 210 273" fill="none" xmlns="http://www.w3.org/2000/svg">
<path fill-rule="evenodd" clip-rule="evenodd" d="M54 170H144V184H158V215H144H142V229H128V215H84V229H70V215H54V198H38V184H54V170Z" fill="#FFA2EB"/>
<path fill-rule="evenodd" clip-rule="evenodd" d="M54 170H38V184H24V198V215H54V229H70V215H54V198H38V184H54V170Z" fill="#DC6CC4"/>
<path fill-rule="evenodd" clip-rule="evenodd" d="M158 170H144V184H158V215H172V184H158V170Z" fill="#FFC9F3"/>
<path fill-rule="evenodd" clip-rule="evenodd" d="M84 38H38V52H24V80V94H38V80H70V52H84V38Z" fill="#121212"/>
<path fill-rule="evenodd" clip-rule="evenodd" d="M112 24H98V38H84V52H70V66H84H128H172V52H128V38H112V24Z" fill="#1F1F1F"/>
<path fill-rule="evenodd" clip-rule="evenodd" d="M128 24H112V38H128V52H172V66H158V80H172V66H186V52H172V38H128V24Z" fill="#3E3E3E"/>
<path fill-rule="evenodd" clip-rule="evenodd" d="M128 80H70V94H38V108H24V142H38V156H54V142V110H70V97H128V80Z" fill="#D58967"/>
<path fill-rule="evenodd" clip-rule="evenodd" d="M128 80H144V97V110V142H129H128H114V156H54V110H70V97H128V80Z" fill="#F9CAAD"/>
<path fill-rule="evenodd" clip-rule="evenodd" d="M158 80H144V142H114V156H158V142V80Z" fill="#FBE1D0"/>
<rect x="24" y="215" width="15" height="14" fill="#D58967"/>
<rect x="39" y="215" width="15" height="14" fill="#F9CAAD"/>
<rect x="142" y="215" width="16" height="14" fill="#D58967"/>
<rect x="158" y="215" width="14" height="14" fill="#F9CAAD"/>
<path fill-rule="evenodd" clip-rule="evenodd" d="M84 215H128V229H84V215ZM84 229V259H70V229H84ZM128 229V259H142V229H128Z" fill="#6AA4CE"/>
<rect x="54" y="229" width="16" height="30" fill="#406884"/>
<path fill-rule="evenodd" clip-rule="evenodd" d="M128 10H98V24H38V38H24V52H10V142H24V156H38V170H24V184H10V229H24V243H40V273H54H84V259H98V243H114V273H128H142V259H156V243H172V229H186V184H172V170H158V156H172V80H186V66H200V52H186V38V24H128V10ZM128 24V38H172V52H186V66H172V80H158V66H70V80H38V94H24V52H38V38H98V24H128ZM38 94V108H24V142H38V156H158V80H70V94H38ZM158 170V184H172V229H156H142V259H128V243V229H98H84V259H54V243V229H24V184H38V170H158ZM84 97H98V127H84V97ZM142 97H128V127H142V97Z" fill="black"/>
</svg>
