<svg width="101" height="84" viewBox="0 0 101 84" fill="none" xmlns="http://www.w3.org/2000/svg">
<path fill-rule="evenodd" clip-rule="evenodd" d="M35 0H72V7H35V0ZM28 14V7H35V14H28ZM21 21V14H28V21H21ZM14 28V21H21V28H14ZM7 42V28H14V42H7ZM7 70H0V42H7V70ZM14 77H7V70H14V77ZM80 77V84H14V77H80ZM87 70H80V77H87V70ZM94 63V70H87V63H94ZM94 21H101V63H94V21ZM87 14H94V21H87V14ZM87 14V7H72V14H87Z" fill="black"/>
<path fill-rule="evenodd" clip-rule="evenodd" d="M94 28H87V35H80V42H73V49H87V42H94V35V28ZM21 49H7V56H14V63H49V56H71V49H42V56H21V49Z" fill="#475965"/>
<path fill-rule="evenodd" clip-rule="evenodd" d="M94 21H87V28H80V35H73V42H49V49H73V42H80V35H87V28H94V21ZM42 42H35V49H21V56H42V49V42Z" fill="#5F7F8E"/>
<path fill-rule="evenodd" clip-rule="evenodd" d="M87 14H72V21H65V28H58V35H49V42H73V35H80V28H87V21V14Z" fill="#788F9D"/>
<path fill-rule="evenodd" clip-rule="evenodd" d="M72 7H65V21H58V28H49V35H35V42H7V49H35V42H42V49H49V42V35H58V28H65V21H72V7Z" fill="#8FA3AC"/>
<path fill-rule="evenodd" clip-rule="evenodd" d="M65 7H35V14H28V21H21V28H14V42H35V35H49V28H58V21H65V7Z" fill="#B1C0C7"/>
<path fill-rule="evenodd" clip-rule="evenodd" d="M87 42H94V49V63H87V70H80V77H14V70H7V56H14V63H49V56H71V49H87V42Z" fill="#34474E"/>
</svg>
