<svg width="275" height="275" viewBox="0 0 275 275" fill="none" xmlns="http://www.w3.org/2000/svg">
<path d="M252.255 160.267C264.797 160.267 274.962 150.094 274.962 137.545C274.962 125 264.797 114.826 252.255 114.826C251.5 114.826 250.76 114.868 250.022 114.935C249.98 114.694 249.929 114.449 249.881 114.209C250.585 113.986 251.282 113.732 251.978 113.44C263.511 108.531 268.9 95.193 263.996 83.646C259.338 72.668 247.066 67.268 235.948 70.97C243.485 62.043 243.054 48.678 234.647 40.266C226.001 31.611 212.112 31.405 203.204 39.628C207.488 28.257 202.06 15.442 190.769 10.686C179.21 5.813 165.895 11.244 161.031 22.806C160.725 23.524 160.464 24.249 160.24 24.98C160.185 24.969 160.132 24.959 160.072 24.948C160.146 24.215 160.186 23.469 160.186 22.718C160.186 10.172 150.023 0 137.477 0C124.937 0 114.769 10.172 114.769 22.718C114.769 23.47 114.809 24.216 114.88 24.948C114.689 24.985 114.501 25.02 114.312 25.059C114.09 24.356 113.837 23.658 113.54 22.968C108.635 11.419 95.303 6.032 83.754 10.938C72.733 15.626 67.332 28.004 71.146 39.169C62.224 31.418 48.702 31.777 40.215 40.266C31.622 48.865 31.358 62.641 39.417 71.558C28.138 67.503 15.532 72.948 10.836 84.126C5.961 95.692 11.385 109.015 22.941 113.884C23.622 114.167 24.305 114.415 24.989 114.63C24.971 114.734 24.956 114.834 24.928 114.936C24.199 114.869 23.456 114.827 22.702 114.827C10.16 114.827 0 125.001 0 137.546C0 150.095 10.16 160.268 22.702 160.268C23.456 160.268 24.199 160.227 24.928 160.154C24.967 160.312 24.989 160.472 25.026 160.627C24.321 160.849 23.626 161.104 22.933 161.397C11.389 166.303 6.00901 179.642 10.906 191.189C15.598 202.237 28.002 207.638 39.178 203.793C31.464 212.717 31.841 226.219 40.315 234.693C48.888 243.272 62.61 243.554 71.53 235.541C67.422 246.847 72.863 259.503 84.066 264.223C95.623 269.092 108.941 263.663 113.809 252.102C114.09 251.434 114.333 250.761 114.541 250.081C114.655 250.102 114.764 250.123 114.867 250.144C114.807 250.836 114.769 251.536 114.769 252.246C114.769 264.789 124.936 274.961 137.477 274.961C150.023 274.961 160.186 264.789 160.186 252.246C160.186 251.536 160.152 250.836 160.085 250.144C160.292 250.103 160.497 250.066 160.699 250.023C160.906 250.686 161.147 251.342 161.418 251.99C166.327 263.542 179.657 268.925 191.2 264.021C202.141 259.372 207.546 247.14 203.897 236.042C212.823 243.633 226.222 243.219 234.647 234.788C243.318 226.123 243.504 212.202 235.248 203.291C246.598 207.545 259.38 202.11 264.126 190.833C268.994 179.267 263.571 165.945 252.007 161.077C251.338 160.793 250.67 160.552 249.995 160.335C250.003 160.277 250.016 160.215 250.021 160.154C250.76 160.227 251.5 160.267 252.255 160.267Z" fill="#4C6627"/>
<path d="M80.6147 107.353L57.1346 169.003L80.5346 169.033L80.5193 180.793L43.3193 180.745L43.333 170.185L66.8132 108.536L44.6132 108.507L44.6285 96.7467L80.6285 96.7935L80.6147 107.353ZM108.792 95.6301C115.192 95.6385 120.189 97.565 123.784 101.41C127.459 105.174 129.292 110.337 129.284 116.897L129.227 160.817C129.218 167.377 127.372 172.574 123.687 176.41C120.082 180.165 115.079 182.038 108.679 182.03C102.279 182.022 97.2417 180.135 93.5666 176.37C89.9716 172.526 88.1783 167.323 88.1869 160.763L88.244 116.843C88.2525 110.283 90.0592 105.126 93.6641 101.37C97.3491 97.5353 102.392 95.6218 108.792 95.6301ZM108.776 107.39C106.216 107.387 104.255 108.224 102.893 109.902C101.611 111.501 100.968 113.86 100.964 116.98L100.907 160.66C100.903 163.78 101.54 166.181 102.818 167.862C104.176 169.464 106.135 170.267 108.695 170.27C111.255 170.273 113.176 169.476 114.458 167.878C115.82 166.199 116.503 163.8 116.507 160.68L116.564 117C116.568 113.88 115.891 111.519 114.533 109.918C113.255 108.236 111.336 107.393 108.776 107.39ZM180.176 162.083C180.168 168.563 178.402 173.521 174.877 176.956C171.433 180.392 166.59 182.105 160.35 182.097C154.27 182.089 149.473 180.363 145.957 176.919C142.522 173.474 140.808 168.512 140.817 162.032L140.901 96.8719L153.141 96.8878L153.057 161.688C153.05 167.288 155.446 170.091 160.246 170.097C165.046 170.103 167.45 167.306 167.457 161.706L167.541 96.9065L180.261 96.9231L180.176 162.083ZM208.065 95.7593C214.145 95.7672 218.823 97.4133 222.099 100.698C225.375 103.982 227.009 108.624 227.001 114.624L226.998 116.784L214.756 117.968L214.76 114.848C214.764 112.448 214.206 110.647 213.087 109.446C211.969 108.164 210.37 107.522 208.29 107.52C206.21 107.517 204.609 108.155 203.487 109.433C202.366 110.632 201.804 112.431 201.8 114.831L201.799 115.911C201.796 118.471 202.552 120.992 204.069 123.474C205.586 125.876 208.382 128.8 212.458 132.245C218.291 137.213 222.406 141.698 224.8 145.701C227.195 149.704 228.389 154.186 228.383 159.146L228.377 163.346C228.37 169.346 226.644 173.983 223.199 177.259C219.835 180.535 214.993 182.168 208.673 182.16C202.353 182.152 197.475 180.506 194.039 177.221C190.684 173.937 189.01 169.295 189.017 163.295L189.025 157.655L201.266 156.47L201.259 162.47C201.252 167.75 203.648 170.394 208.448 170.4C213.248 170.406 215.652 167.769 215.658 162.489L215.662 159.729C215.666 157.009 214.869 154.448 213.272 152.046C211.675 149.564 208.799 146.56 204.644 143.035C198.89 138.147 194.856 133.742 192.541 129.819C190.226 125.816 189.072 121.335 189.078 116.375L189.081 114.575C189.089 108.575 190.735 103.937 194.019 100.661C197.303 97.3853 201.985 95.7513 208.065 95.7593Z" fill="#F6BEC4"/>
<path d="M82.4829 103.611L83.3556 103.944L83.4166 103.784L83.4168 103.613L82.4829 103.611ZM59.0027 165.261L58.13 164.928L57.6484 166.193L59.0015 166.195L59.0027 165.261ZM82.4027 165.291L83.3366 165.292L83.3378 164.359L82.4039 164.357L82.4027 165.291ZM82.3874 177.051L82.3862 177.985L83.3201 177.986L83.3213 177.052L82.3874 177.051ZM45.1875 177.003L44.2536 177.002L44.2524 177.936L45.1862 177.937L45.1875 177.003ZM45.2012 166.443L44.3285 166.11L44.2675 166.27L44.2673 166.442L45.2012 166.443ZM68.6814 104.793L69.5541 105.126L70.0357 103.861L68.6826 103.859L68.6814 104.793ZM46.4814 104.764L45.5475 104.763L45.5463 105.697L46.4802 105.698L46.4814 104.764ZM46.4967 93.0045L46.4979 92.0706L45.564 92.0694L45.5628 93.0033L46.4967 93.0045ZM82.4966 93.0513L83.4305 93.0525L83.4317 92.1187L82.4978 92.1175L82.4966 93.0513ZM81.6102 103.279L58.13 164.928L59.8755 165.593L83.3556 103.944L81.6102 103.279ZM59.0015 166.195L82.4015 166.225L82.4039 164.357L59.004 164.327L59.0015 166.195ZM81.4689 165.29L81.4536 177.05L83.3213 177.052L83.3366 165.292L81.4689 165.29ZM82.3886 176.117L45.1887 176.069L45.1862 177.937L82.3862 177.985L82.3886 176.117ZM46.1213 177.004L46.1351 166.444L44.2673 166.442L44.2536 177.002L46.1213 177.004ZM46.0739 166.775L69.5541 105.126L67.8086 104.461L44.3285 166.11L46.0739 166.775ZM68.6826 103.859L46.4826 103.831L46.4802 105.698L68.6801 105.727L68.6826 103.859ZM47.4152 104.766L47.4305 93.0057L45.5628 93.0033L45.5475 104.763L47.4152 104.766ZM46.4954 93.9384L82.4954 93.9852L82.4978 92.1175L46.4979 92.0706L46.4954 93.9384ZM81.5628 93.0501L81.549 103.61L83.4168 103.613L83.4305 93.0525L81.5628 93.0501ZM125.652 97.6675L124.97 98.3053L124.977 98.3126L124.984 98.3198L125.652 97.6675ZM125.555 172.667L124.881 172.02L124.881 172.021L125.555 172.667ZM95.4348 172.628L94.7526 173.266L94.7595 173.273L94.7665 173.281L95.4348 172.628ZM95.5323 97.6283L94.8589 96.9813L94.8586 96.9816L95.5323 97.6283ZM104.761 106.16L104.036 105.572L104.033 105.576L104.761 106.16ZM104.686 164.12L103.942 164.685L103.957 164.705L103.973 164.724L104.686 164.12ZM116.326 164.135L115.601 163.547L115.597 163.551L116.326 164.135ZM116.401 106.175L115.658 106.74L115.673 106.76L115.689 106.779L116.401 106.175ZM110.659 92.8218C116.86 92.8299 121.589 94.6889 124.97 98.3053L126.334 97.0296C122.526 92.9566 117.259 90.9627 110.661 90.9541L110.659 92.8218ZM124.984 98.3198C128.449 101.869 130.227 106.774 130.218 113.153L132.086 113.156C132.095 106.415 130.206 100.995 126.32 97.0151L124.984 98.3198ZM130.218 113.153L130.161 157.073L132.029 157.076L132.086 113.156L130.218 113.153ZM130.161 157.073C130.153 163.452 128.363 168.397 124.881 172.02L126.228 173.314C130.117 169.267 132.02 163.817 132.029 157.076L130.161 157.073ZM124.881 172.021C121.492 175.552 116.756 177.362 110.549 177.354L110.546 179.222C117.138 179.23 122.408 177.294 126.228 173.314L124.881 172.021ZM110.549 177.354C104.342 177.346 99.5658 175.523 96.103 171.976L94.7665 173.281C98.6539 177.263 103.953 179.213 110.546 179.222L110.549 177.354ZM96.1169 171.99C92.7214 168.359 90.9806 163.406 90.9889 157.022L89.1212 157.02C89.1124 163.756 90.9581 169.208 94.7526 173.266L96.1169 171.99ZM90.9889 157.022L91.046 113.102L89.1783 113.1L89.1212 157.02L90.9889 157.022ZM91.046 113.102C91.0543 106.718 92.8082 101.815 96.206 98.275L94.8586 96.9816C91.0466 100.953 89.187 106.365 89.1783 113.1L91.046 113.102ZM96.2057 98.2753C99.6791 94.6603 104.457 92.8138 110.659 92.8218L110.661 90.9541C104.062 90.9455 98.7554 92.9258 94.8589 96.9813L96.2057 98.2753ZM110.646 102.714C107.862 102.71 105.609 103.633 104.036 105.572L105.486 106.749C106.637 105.331 108.307 104.579 110.643 104.582L110.646 102.714ZM104.033 105.576C102.564 107.407 101.902 110.01 101.898 113.237L103.766 113.239C103.77 110.226 104.394 108.111 105.49 106.745L104.033 105.576ZM101.898 113.237L101.841 156.917L103.709 156.919L103.766 113.239L101.898 113.237ZM101.841 156.917C101.837 160.148 102.494 162.779 103.942 164.685L105.429 163.555C104.322 162.098 103.705 159.928 103.709 156.919L101.841 156.917ZM103.973 164.724C105.547 166.58 107.793 167.458 110.561 167.462L110.564 165.594C108.212 165.591 106.54 164.864 105.398 163.516L103.973 164.724ZM110.561 167.462C113.328 167.465 115.551 166.594 117.054 164.72L115.597 163.551C114.536 164.874 112.918 165.597 110.564 165.594L110.561 167.462ZM117.051 164.724C118.596 162.82 119.305 160.181 119.309 156.939L117.441 156.937C117.437 159.935 116.78 162.095 115.601 163.547L117.051 164.724ZM119.309 156.939L119.366 113.259L117.498 113.257L117.441 156.937L119.309 156.939ZM119.366 113.259C119.37 110.022 118.67 107.408 117.113 105.572L115.689 106.779C116.848 108.147 117.502 110.254 117.498 113.257L119.366 113.259ZM117.145 105.61C115.653 103.647 113.428 102.718 110.646 102.714L110.643 104.582C112.981 104.585 114.594 105.341 115.658 106.74L117.145 105.61ZM176.745 173.214L176.093 172.545L176.086 172.553L176.745 173.214ZM147.825 173.176L147.164 173.836L147.172 173.843L147.825 173.176ZM142.769 93.1297L142.771 92.1958L141.837 92.1946L141.836 93.1285L142.769 93.1297ZM155.009 93.1456L155.943 93.1468L155.944 92.213L155.011 92.2118L155.009 93.1456ZM169.409 93.1644L169.411 92.2305L168.477 92.2293L168.476 93.1631L169.409 93.1644ZM182.129 93.1809L183.063 93.1821L183.064 92.2483L182.131 92.247L182.129 93.1809ZM181.111 158.34C181.103 164.651 179.386 169.336 176.093 172.545L177.397 173.883C181.153 170.221 182.97 164.991 182.979 158.342L181.111 158.34ZM176.086 172.553C172.863 175.768 168.285 177.429 162.22 177.421L162.217 179.289C168.632 179.297 173.739 177.531 177.405 173.875L176.086 172.553ZM162.22 177.421C156.323 177.414 151.781 175.745 148.479 172.509L147.172 173.843C150.901 177.497 155.954 179.281 162.217 179.289L162.22 177.421ZM148.487 172.517C145.278 169.3 143.61 164.608 143.619 158.291L141.751 158.288C141.742 164.931 143.502 170.164 147.164 173.836L148.487 172.517ZM143.619 158.291L143.703 93.1309L141.836 93.1285L141.751 158.288L143.619 158.291ZM142.768 94.0636L155.008 94.0795L155.011 92.2118L142.771 92.1958L142.768 94.0636ZM154.076 93.1444L153.991 157.944L155.859 157.947L155.943 93.1468L154.076 93.1444ZM153.991 157.944C153.987 160.856 154.605 163.215 156.007 164.855C157.433 166.522 159.528 167.285 162.113 167.289L162.115 165.421C159.9 165.418 158.398 164.777 157.427 163.641C156.432 162.478 155.856 160.635 155.859 157.947L153.991 157.944ZM162.113 167.289C164.698 167.292 166.795 166.534 168.225 164.871C169.631 163.235 170.255 160.877 170.259 157.966L168.391 157.963C168.388 160.651 167.806 162.493 166.809 163.653C165.835 164.787 164.331 165.424 162.115 165.421L162.113 167.289ZM170.259 157.966L170.343 93.1656L168.476 93.1631L168.391 157.963L170.259 157.966ZM169.408 94.0982L182.128 94.1148L182.131 92.247L169.411 92.2305L169.408 94.0982ZM181.195 93.1797L181.111 158.34L182.979 158.342L183.063 93.1821L181.195 93.1797ZM228.866 113.042L228.956 113.971L229.799 113.89L229.8 113.043L228.866 113.042ZM216.625 114.226L215.691 114.225L215.689 115.254L216.714 115.155L216.625 114.226ZM214.956 105.704L214.252 106.318L214.262 106.329L214.272 106.34L214.956 105.704ZM205.356 105.691L206.037 106.329L206.048 106.318L206.058 106.307L205.356 105.691ZM205.937 119.732L205.14 120.219L205.148 120.231L205.937 119.732ZM214.326 128.503L214.931 127.792L214.929 127.79L214.326 128.503ZM226.668 141.959L225.867 142.438L225.867 142.438L226.668 141.959ZM225.067 173.517L224.424 172.84L224.416 172.848L225.067 173.517ZM195.907 173.479L195.254 174.146L195.262 174.154L195.907 173.479ZM190.893 153.912L190.803 152.983L189.96 153.064L189.959 153.911L190.893 153.912ZM203.134 152.728L204.068 152.729L204.07 151.7L203.045 151.799L203.134 152.728ZM215.14 148.304L214.355 148.809L214.363 148.821L215.14 148.304ZM206.512 139.293L205.907 140.004L205.908 140.005L206.512 139.293ZM194.409 126.077L193.601 126.544L193.605 126.552L194.409 126.077ZM209.932 92.9509C215.844 92.9586 220.254 94.5554 223.306 97.6148L224.628 96.2958C221.128 92.7867 216.182 91.0913 209.935 91.0832L209.932 92.9509ZM223.306 97.6148C226.359 100.676 227.943 105.052 227.935 110.881L229.803 110.883C229.811 104.711 228.126 99.8027 224.628 96.2958L223.306 97.6148ZM227.935 110.881L227.932 113.04L229.8 113.043L229.803 110.883L227.935 110.881ZM228.776 112.112L216.535 113.296L216.714 115.155L228.956 113.971L228.776 112.112ZM217.558 114.227L217.562 111.107L215.695 111.105L215.691 114.225L217.558 114.227ZM217.562 111.107C217.566 108.578 216.98 106.507 215.639 105.067L214.272 106.34C215.168 107.303 215.698 108.833 215.695 111.105L217.562 111.107ZM215.659 105.09C214.325 103.561 212.443 102.846 210.159 102.844L210.157 104.711C212.033 104.714 213.35 105.284 214.252 106.318L215.659 105.09ZM210.159 102.844C207.875 102.841 205.992 103.55 204.654 105.075L206.058 106.307C206.963 105.275 208.281 104.709 210.157 104.711L210.159 102.844ZM204.674 105.053C203.329 106.49 202.738 108.559 202.735 111.088L204.602 111.09C204.605 108.819 205.139 107.29 206.037 106.329L204.674 105.053ZM202.735 111.088L202.733 112.168L204.601 112.17L204.602 111.09L202.735 111.088ZM202.733 112.168C202.73 114.922 203.546 117.61 205.141 120.219L206.734 119.245C205.295 116.889 204.598 114.535 204.601 112.17L202.733 112.168ZM205.148 120.231C206.742 122.756 209.627 125.753 213.723 129.216L214.929 127.79C210.874 124.362 208.166 121.512 206.727 119.233L205.148 120.231ZM213.721 129.214C219.52 134.152 223.547 138.561 225.867 142.438L227.47 141.479C225 137.351 220.799 132.789 214.931 127.792L213.721 129.214ZM225.867 142.438C228.169 146.287 229.323 150.6 229.317 155.402L231.185 155.405C231.192 150.287 229.957 145.637 227.47 141.479L225.867 142.438ZM229.317 155.402L229.312 159.602L231.179 159.605L231.185 155.405L229.317 155.402ZM229.312 159.602C229.304 165.418 227.637 169.784 224.424 172.84L225.711 174.194C229.386 170.698 231.171 165.789 231.179 159.605L229.312 159.602ZM224.416 172.848C221.28 175.901 216.705 177.492 210.542 177.484L210.54 179.352C217.017 179.36 222.127 177.684 225.719 174.186L224.416 172.848ZM210.542 177.484C204.381 177.476 199.764 175.874 196.553 172.804L195.262 174.154C198.922 177.653 204.061 179.343 210.54 179.352L210.542 177.484ZM196.561 172.811C193.431 169.749 191.812 165.376 191.819 159.554L189.952 159.551C189.944 165.729 191.672 170.64 195.254 174.146L196.561 172.811ZM191.819 159.554L191.827 153.914L189.959 153.911L189.952 159.551L191.819 159.554ZM190.983 154.842L203.224 153.658L203.045 151.799L190.803 152.983L190.983 154.842ZM202.201 152.727L202.193 158.727L204.061 158.729L204.068 152.729L202.201 152.727ZM202.193 158.727C202.189 161.49 202.812 163.738 204.227 165.298C205.657 166.875 207.747 167.588 210.315 167.592L210.318 165.724C208.086 165.721 206.577 165.109 205.611 164.043C204.629 162.961 204.057 161.246 204.061 158.729L202.193 158.727ZM210.315 167.592C212.883 167.595 214.975 166.887 216.409 165.314C217.828 163.757 218.457 161.511 218.461 158.748L216.593 158.746C216.59 161.263 216.013 162.975 215.029 164.056C214.06 165.119 212.549 165.727 210.318 165.724L210.315 167.592ZM218.461 158.748L218.464 155.988L216.596 155.986L216.593 158.746L218.461 158.748ZM218.464 155.988C218.468 153.072 217.61 150.333 215.918 147.787L214.363 148.821C215.864 151.079 216.6 153.462 216.596 155.986L218.464 155.988ZM215.926 147.799C214.253 145.199 211.293 142.124 207.116 138.581L205.908 140.005C210.042 143.512 212.834 146.444 214.355 148.809L215.926 147.799ZM207.117 138.581C201.397 133.723 197.452 129.396 195.213 125.602L193.605 126.552C195.996 130.604 200.119 135.088 205.907 140.004L207.117 138.581ZM195.218 125.609C192.991 121.759 191.874 117.441 191.88 112.634L190.013 112.631C190.006 117.743 191.198 122.389 193.601 126.544L195.218 125.609ZM191.88 112.634L191.883 110.834L190.015 110.831L190.013 112.631L191.88 112.634ZM191.883 110.834C191.89 105.005 193.485 100.634 196.546 97.58L195.228 96.2576C191.721 99.7554 190.023 104.659 190.015 110.831L191.883 110.834ZM196.546 97.58C199.606 94.5286 204.02 92.9432 209.932 92.9509L209.935 91.0832C203.687 91.0751 198.737 92.7576 195.228 96.2576L196.546 97.58Z" fill="white"/>
</svg>
