<svg width="210" height="273" viewBox="0 0 210 273" fill="none" xmlns="http://www.w3.org/2000/svg">
<path fill-rule="evenodd" clip-rule="evenodd" d="M54 185H144V194H158V225H144H142V239H128V225H84V239H70V225H54V208H38V194H54V185Z" fill="#FFA2EB"/>
<path fill-rule="evenodd" clip-rule="evenodd" d="M54 185H38V199H24V208V225H54V239H70V225H54V208H38V199H54V185Z" fill="#DC6CC4"/>
<path fill-rule="evenodd" clip-rule="evenodd" d="M158 185H144V199H158V225H172V199H158V185Z" fill="#FFC9F3"/>
<path fill-rule="evenodd" clip-rule="evenodd" d="M84 53H38V67H24V95V109H38V95H70V67H84V53Z" fill="#121212"/>
<path fill-rule="evenodd" clip-rule="evenodd" d="M112 39H98V53H84V67H70V81H84H128H172V67H128V53H112V39Z" fill="#1F1F1F"/>
<path fill-rule="evenodd" clip-rule="evenodd" d="M128 39H112V53H128V67H172V81H158V95H172V81H186V67H172V53H128V39Z" fill="#3E3E3E"/>
<path fill-rule="evenodd" clip-rule="evenodd" d="M128 95H70V109H38V123H24V157H38V171H54V157V125H70V112H128V95Z" fill="#D58967"/>
<path fill-rule="evenodd" clip-rule="evenodd" d="M128 95H144V112V125V157H129H128H114V171H54V125H70V112H128V95Z" fill="#F9CAAD"/>
<path fill-rule="evenodd" clip-rule="evenodd" d="M158 95H144V157H114V171H158V157V95Z" fill="#FBE1D0"/>
<rect x="24" y="225" width="15" height="14" fill="#D58967"/>
<rect x="39" y="225" width="15" height="14" fill="#F9CAAD"/>
<rect x="142" y="225" width="16" height="14" fill="#D58967"/>
<rect x="158" y="225" width="14" height="14" fill="#F9CAAD"/>
<path fill-rule="evenodd" clip-rule="evenodd" d="M84 225H128V239H84V225ZM84 239V269H70V239H84ZM128 239V269H142V239H128Z" fill="#6AA4CE"/>
<rect x="54" y="239" width="16" height="30" fill="#406884"/>
<path fill-rule="evenodd" clip-rule="evenodd" d="M128 25H98V39H38V53H24V67H10V157H24V171H38V185H24V199H10V239H24V253H40V273H54H84V259H98V253H114V273H128H142V259H156V253H172V239H186V199H172V185H158V171H172V95H186V81H200V67H186V53V39H128V25ZM128 39V53H172V67H186V81H172V95H158V81H70V95H38V109H24V67H38V53H98V39H128ZM38 109V123H24V157H38V171H158V95H70V109H38ZM158 185V199H172V239H156H142V259H128V253V239H98H84V259H54V253V239H24V199H38V185H158ZM84 112H98V142H84V112ZM142 112H128V142H142V112Z" fill="black"/>
</svg>
